# xmcd
#
# Track frame offsets:
#	150
#	19651
#	38029
#	58358
#	85513
#	106745
#	127674
#	147966
#	167821
#	186284
#	204878
#	223367
#
# Disc length: 3252 seconds
#
# Revision: 1
# Processed by: cddbd v1.5.2PL0 Copyright (c) Steve Scherf et al.
# Submitted via: audiograbber 1.83.01
#
DISCID=a10cb20c
DTITLE=Todd Wolfe Band - Miles To Go
DYEAR=2013
DGENRE=Blues
TTITLE0=Nuthin' But You
TTITLE1=Sunnyvale
TTITLE2=Locket Full Of Dreams
TTITLE3=Forty Four
TTITLE4=Day To Day
TTITLE5=Stay With Me Baby
TTITLE6=Against The Wall
TTITLE7=I Stand Alone
TTITLE8=Come What May
TTITLE9=Valley Of The Kings
TTITLE10=Livin' On A Dream
TTITLE11=The Inner Light
EXTD=
EXTT0=
EXTT1=
EXTT2=
EXTT3=
EXTT4=
EXTT5=
EXTT6=
EXTT7=
EXTT8=
EXTT9=
EXTT10=
EXTT11=
PLAYORDER=
